<?xml version="1.0" standalone="no"?>
<!DOCTYPE svg PUBLIC "-//W3C//DTD SVG 20010904//EN"
 "http://www.w3.org/TR/2001/REC-SVG-20010904/DTD/svg10.dtd">
<svg version="1.0" xmlns="http://www.w3.org/2000/svg"
 width="300.000000pt" height="300.000000pt" viewBox="0 0 300.000000 300.000000"
 preserveAspectRatio="xMidYMid meet">
<metadata>
Created by potrace 1.10, written by Peter Selinger 2001-2011
</metadata>
<g transform="translate(0.000000,300.000000) scale(0.100000,-0.100000)"
fill="#000000" stroke="none">
<path d="M1428 2603 c23 -2 59 -2 80 0 20 2 1 4 -43 4 -44 0 -61 -2 -37 -4z"/>
<path d="M1405 2583 c-11 -3 -23 -10 -27 -17 -6 -8 -10 -8 -16 1 -6 9 -26 8
-86 -7 -43 -11 -83 -17 -89 -13 -6 3 -7 1 -3 -5 4 -8 -3 -16 -19 -22 -33 -13
-38 -13 -29 1 3 6 -9 3 -27 -6 -37 -19 -53 -32 -29 -23 53 20 56 20 31 0 -19
-15 -31 -17 -65 -11 -22 5 -61 8 -86 7 -32 0 -18 -4 45 -13 51 -7 95 -8 101
-3 6 4 18 7 25 5 8 -2 10 -2 6 1 -11 5 24 31 42 32 11 0 9 -4 -5 -16 -18 -14
-18 -15 4 -4 12 6 22 15 22 20 0 5 7 6 17 3 12 -5 14 -3 8 7 -6 10 -4 12 8 7
9 -3 35 0 58 8 23 8 61 15 84 15 29 0 45 5 49 15 3 8 11 15 17 15 8 0 8 -4 -1
-15 -10 -12 -10 -15 3 -15 9 0 18 8 20 18 4 16 5 16 6 0 1 -20 21 -25 21 -5 0
8 3 9 8 1 4 -6 30 -14 57 -18 28 -4 61 -9 75 -11 14 -3 7 2 -15 9 -22 8 -55
15 -72 15 -22 1 -33 6 -33 16 0 11 -11 15 -42 14 -24 -1 -52 -4 -63 -6z"/>
<path d="M1520 2581 c0 -5 28 -12 62 -15 35 -4 69 -13 77 -19 8 -7 17 -11 20
-11 9 2 44 -12 91 -36 22 -11 40 -16 40 -10 0 5 -7 10 -15 10 -8 0 -15 4 -15
8 0 9 -60 35 -77 33 -7 -1 -13 3 -13 9 0 5 5 10 11 10 5 0 7 5 3 11 -5 8 -9 8
-14 -1 -6 -9 -16 -10 -41 -2 -49 15 -129 23 -129 13z"/>
<path d="M654 2569 c-11 -18 211 -26 251 -9 15 6 16 9 5 11 -34 6 -252 4 -256
-2z"/>
<path d="M630 2556 c0 -5 18 -26 40 -46 43 -40 46 -41 28 -7 -10 19 -9 20 4
10 12 -11 15 -42 13 -185 -2 -151 -1 -158 4 -58 l7 115 2 -155 c1 -88 -2 -149
-7 -142 -5 8 -8 -10 -7 -46 1 -45 4 -56 11 -44 10 17 15 440 5 495 -5 30 -51
63 -71 51 -6 -4 -15 0 -20 7 -5 8 -9 10 -9 5z"/>
<path d="M877 2531 c-42 -19 -60 -33 -65 -51 -4 -14 -6 -108 -5 -210 1 -138 5
-195 16 -225 15 -39 15 -37 11 75 -2 63 -7 153 -10 200 -7 100 7 166 36 175
11 4 20 10 20 15 0 4 7 11 16 14 14 5 15 4 5 -8 -8 -9 -8 -16 -2 -20 11 -7 45
38 39 52 -1 4 -29 -3 -61 -17z"/>
<path d="M2197 2534 c-10 -13 -23 -24 -29 -24 -6 0 -3 10 8 21 15 17 11 16
-21 -6 -39 -26 -43 -27 -150 -23 -60 2 -99 1 -85 -2 24 -6 23 -7 -10 -14 l-35
-7 25 -14 c14 -8 30 -14 35 -14 6 0 -1 6 -15 14 -22 12 -14 13 76 8 91 -5 105
-4 150 18 27 12 54 25 59 28 6 2 3 -4 -5 -14 -12 -14 -15 -52 -15 -187 0 -163
-1 -168 -18 -147 -9 12 -20 33 -24 48 -8 32 -32 71 -44 71 -10 0 23 -69 53
-113 12 -17 22 -52 25 -90 11 -130 22 -86 23 93 1 212 5 276 19 328 13 45 2
58 -22 26z m-130 -51 c-20 -2 -52 -2 -70 0 -17 2 0 4 38 4 39 0 53 -2 32 -4z"/>
<path d="M1290 2495 c-59 -15 -89 -31 -126 -69 -47 -48 -53 -79 -7 -35 89 85
210 110 337 68 108 -36 175 -111 176 -198 0 -19 3 -31 7 -27 11 11 3 77 -14
110 -17 33 -89 106 -104 106 -6 0 -8 4 -5 8 2 4 -3 8 -12 9 -9 1 -30 7 -47 13
-57 23 -148 29 -205 15z"/>
<path d="M1011 2436 c-30 -13 -68 -35 -85 -49 -33 -25 -86 -116 -86 -145 0
-12 4 -9 13 8 37 71 107 133 200 180 15 7 27 17 27 22 0 12 -9 10 -69 -16z"/>
<path d="M1318 2440 c-75 -9 -141 -49 -172 -103 -18 -32 -25 -63 -30 -131 -4
-55 -12 -99 -22 -113 -18 -29 -56 -45 -66 -29 -5 7 -8 4 -8 -7 0 -27 26 -31
58 -8 37 26 49 58 56 148 5 78 23 123 64 159 63 55 207 72 292 33 50 -22 100
-66 100 -86 0 -7 5 -13 11 -13 22 0 -2 55 -37 87 -58 51 -149 74 -246 63z"/>
<path d="M1854 2433 c9 -10 22 -27 30 -38 15 -20 15 -19 9 3 -5 22 -1 21 73
-18 44 -23 85 -49 91 -57 7 -9 16 -14 19 -10 4 4 -4 15 -17 26 -27 23 -162 95
-197 106 -22 6 -22 6 -8 -12z"/>
<path d="M1986 2428 c23 -12 61 -39 84 -58 56 -47 70 -54 70 -38 0 16 -131
106 -168 114 -21 5 -18 1 14 -18z"/>
<path d="M1105 2424 c-16 -9 -55 -29 -85 -44 -72 -37 -156 -125 -165 -173 -4
-20 -5 -71 -1 -114 3 -43 6 -84 6 -90 0 -7 3 -13 8 -13 4 0 5 47 4 105 -3 93
-2 107 17 134 24 33 125 96 140 87 10 -7 27 32 18 40 -3 3 -29 -7 -59 -22 -45
-23 -50 -24 -35 -7 10 12 41 28 70 37 55 17 153 76 127 76 -8 0 -28 -7 -45
-16z"/>
<path d="M2215 2323 c-4 -54 -5 -154 -2 -221 5 -114 4 -123 -11 -117 -9 4 -25
10 -35 12 -10 3 -29 27 -42 54 -44 86 -138 172 -150 137 -2 -7 -13 -48 -25
-91 -46 -176 -126 -249 -532 -487 -89 -52 -186 -117 -215 -144 -59 -53 -132
-145 -151 -188 -13 -32 -27 -35 -41 -11 -6 10 -11 13 -11 7 0 -19 27 -47 39
-40 6 4 30 35 53 69 89 131 148 180 358 302 271 156 375 233 440 326 48 69 68
114 84 190 l11 57 54 -45 c34 -30 61 -64 76 -98 16 -38 31 -55 53 -64 61 -25
61 -25 61 223 -1 125 -2 226 -4 226 -2 0 -6 -44 -10 -97z"/>
<path d="M1075 2346 c-25 -38 -42 -243 -22 -263 3 -2 5 29 6 69 1 95 10 157
28 191 17 33 9 36 -12 3z"/>
<path d="M1950 2353 c0 -24 22 -83 35 -93 12 -10 12 -7 -1 19 -9 17 -14 36
-12 42 5 14 85 -56 93 -81 7 -22 25 -27 25 -7 0 20 -68 95 -101 112 -32 17
-39 18 -39 8z"/>
<path d="M1105 2340 c-11 -18 -32 -241 -22 -231 5 5 11 47 14 93 2 46 9 96 14
112 9 30 6 46 -6 26z"/>
<path d="M1887 2293 c14 -46 13 -119 -2 -188 -8 -40 -45 -115 -55 -115 -5 0
-11 -8 -14 -18 -3 -10 -18 -25 -33 -35 -16 -9 -44 -30 -63 -48 -44 -39 -87
-62 -102 -53 -6 4 -8 3 -4 -4 3 -6 -7 -16 -24 -24 -16 -7 -30 -16 -30 -19 0
-3 -30 -21 -67 -40 -37 -19 -74 -40 -81 -47 -7 -6 -23 -17 -35 -23 -54 -28
-187 -122 -234 -166 -32 -28 -54 -58 -56 -73 -2 -14 -8 -35 -15 -47 -25 -45
-10 -40 41 15 28 31 63 68 77 81 35 35 176 124 300 191 151 81 270 162 331
225 55 56 109 138 109 164 0 8 -12 -9 -26 -38 -15 -28 -54 -80 -88 -114 -58
-58 -110 -93 -416 -273 -154 -91 -176 -107 -237 -167 -34 -33 -65 -58 -68 -55
-9 9 89 103 151 145 33 22 79 53 104 70 25 17 77 47 115 68 39 21 77 44 86 51
8 8 18 14 22 14 3 0 40 23 81 50 42 28 79 50 84 50 26 0 136 134 162 198 25
64 10 272 -20 272 -5 0 -1 -21 7 -47z"/>
<path d="M1636 2267 c8 -65 -8 -100 -68 -151 -44 -38 -69 -48 -47 -18 11 15
11 15 -1 4 -8 -7 -15 -18 -15 -24 0 -6 -6 -13 -14 -16 -8 -3 -11 0 -7 7 5 7 1
9 -9 4 -12 -4 -13 -8 -5 -13 7 -4 -13 -23 -54 -49 -36 -22 -68 -41 -70 -41
-15 0 -139 -80 -190 -122 -73 -61 -89 -81 -126 -160 -40 -85 -54 -165 -46
-266 5 -62 3 -81 -5 -76 -8 4 -9 3 -5 -4 5 -9 13 -9 28 -1 11 6 16 14 11 18
-10 7 -11 13 -12 116 -3 188 83 320 284 435 128 73 261 161 309 204 22 19 43
33 47 30 9 -5 39 48 39 68 -1 7 -7 -2 -16 -21 -8 -19 -17 -31 -20 -28 -3 3 -2
12 2 19 12 17 12 108 0 108 -4 0 -6 7 -2 15 3 8 1 15 -4 15 -6 0 -8 -21 -4
-53z"/>
<path d="M1614 2119 c-31 -36 -111 -91 -263 -183 -79 -48 -164 -103 -188 -123
-99 -81 -144 -190 -141 -342 l1 -96 7 110 c14 205 65 280 285 414 234 143 339
220 323 236 -2 3 -13 -5 -24 -16z"/>
<path d="M670 1970 c-24 -44 -10 -50 120 -50 101 0 122 3 127 16 3 9 -2 23
-13 32 -16 16 -17 16 -5 0 9 -12 9 -18 0 -23 -6 -4 -14 -4 -18 1 -3 5 -26 14
-50 21 -35 9 -52 8 -84 -3 -21 -8 -43 -12 -47 -9 -5 3 -10 -1 -13 -7 -2 -7 -8
-10 -12 -6 -4 4 -2 14 5 23 7 9 10 18 7 21 -3 3 -11 -4 -17 -16z"/>
<path d="M1950 1920 c9 -6 10 -10 3 -10 -6 0 -15 -9 -18 -20 -14 -45 -123
-144 -253 -232 -75 -49 -146 -94 -159 -99 -13 -5 -61 -31 -107 -59 -86 -52
-119 -64 -76 -29 28 23 9 16 -33 -13 -15 -11 -25 -23 -22 -28 2 -4 -12 -19
-33 -33 -67 -45 -139 -123 -166 -182 -31 -64 -46 -180 -28 -211 9 -15 10 -11
6 23 -8 58 20 158 61 220 36 53 154 151 255 210 77 45 190 104 190 99 0 -4 -7
-8 -140 -86 -89 -53 -226 -152 -258 -189 -32 -35 -74 -102 -69 -107 2 -2 20
20 40 50 50 76 200 185 432 316 135 76 247 156 306 217 l44 47 -50 -42 c-101
-86 -281 -209 -291 -200 -2 2 39 32 92 67 131 86 216 161 255 223 l33 53 7
-40 c16 -86 10 -221 -13 -282 -52 -140 -134 -216 -430 -397 -42 -26 -95 -67
-117 -92 -80 -91 -63 -208 36 -249 51 -21 66 -18 18 4 -54 25 -74 49 -81 103
-5 34 -1 56 14 91 18 41 34 55 159 135 312 203 385 276 428 427 30 103 5 325
-37 325 -9 0 -9 -3 2 -10z"/>
<path d="M1949 1730 c-5 -134 -28 -197 -100 -275 -51 -55 -83 -78 -261 -186
-153 -93 -182 -116 -225 -177 -27 -37 -33 -55 -32 -91 1 -47 3 -44 14 23 10
62 85 132 243 227 173 104 243 159 306 241 55 72 82 202 66 313 -4 27 -8 2
-11 -75z"/>
<path d="M1032 1750 c-18 -27 -32 -54 -32 -61 0 -7 16 13 35 46 43 71 41 82
-3 15z"/>
<path d="M1927 1740 c-20 -136 -77 -247 -160 -312 -23 -18 -43 -36 -45 -40 -2
-5 -12 -8 -23 -8 -10 0 -19 -4 -19 -10 0 -5 -5 -10 -10 -10 -6 0 -33 -15 -60
-32 -90 -60 -137 -88 -149 -88 -6 0 -11 -4 -11 -8 0 -4 -12 -15 -28 -24 -69
-41 -136 -140 -134 -199 1 -32 34 -113 51 -124 7 -3 3 8 -9 27 -24 40 -26 107
-4 153 37 80 71 105 385 298 89 54 158 125 187 190 28 63 44 143 40 197 l-3
45 -8 -55z"/>
<path d="M1947 1334 c-3 -3 -3 -12 0 -20 3 -8 -3 -25 -13 -37 -13 -14 -14 -18
-3 -9 15 11 15 6 4 -65 -16 -98 -25 -121 -81 -205 -77 -115 -169 -175 -284
-185 -59 -5 -75 -2 -125 21 -48 22 -56 23 -42 8 35 -38 143 -53 234 -32 116
27 247 165 294 310 7 22 5 -35 -5 -217 -2 -34 0 -43 13 -43 14 0 16 22 16 183
0 100 3 200 6 222 4 22 6 -57 5 -176 l-1 -215 28 -42 c15 -23 33 -42 39 -42 9
0 9 -3 0 -12 -10 -10 -15 -10 -21 1 -11 18 -131 35 -145 21 -16 -16 -29 -12
-22 8 3 9 -3 5 -15 -11 -11 -15 -25 -24 -31 -21 -6 4 -9 1 -6 -7 4 -11 33 -15
128 -17 70 -1 128 2 133 7 6 6 -4 27 -29 57 l-39 47 0 231 c1 215 -2 245 -26
246 -3 0 -8 -3 -12 -6z m6 -561 c-24 -2 -62 -2 -85 0 -24 2 -5 4 42 4 47 0 66
-2 43 -4z"/>
<path d="M1895 1007 c-10 -18 -34 -52 -54 -77 l-35 -45 33 30 c33 30 87 112
79 120 -2 2 -12 -10 -23 -28z"/>
<path d="M1031 1009 c-2 -40 55 -143 103 -187 85 -78 183 -112 325 -112 89 0
209 27 285 65 67 33 82 45 90 73 4 12 11 20 16 17 5 -3 7 -12 3 -20 -3 -8 -3
-15 1 -15 6 0 36 54 36 65 0 10 -44 -17 -82 -51 -134 -120 -410 -153 -578 -68
-45 22 -140 109 -140 128 0 5 -8 18 -17 29 -10 10 -23 37 -30 60 -8 33 -11 36
-12 16z"/>
<path d="M1786 952 c-30 -34 -37 -45 -17 -27 30 27 77 85 69 85 -2 0 -25 -26
-52 -58z"/>
<path d="M1119 933 c60 -82 104 -113 210 -148 61 -20 201 -25 241 -8 19 8 9 9
-46 6 -39 -3 -94 0 -123 6 -73 15 -191 68 -219 97 -13 13 -26 24 -31 24 -4 0
-14 11 -21 25 -7 14 -17 25 -22 25 -5 0 0 -12 11 -27z"/>
<path d="M1775 854 c-40 -34 -79 -54 -145 -75 -30 -10 -45 -18 -33 -18 41 -1
131 39 175 79 48 43 50 54 3 14z"/>
<path d="M1290 770 c0 -22 218 -39 264 -21 10 4 -21 6 -70 4 -57 -3 -108 1
-141 10 -29 8 -53 11 -53 7z"/>
</g>
</svg>
